<?xml version="1.0" encoding="utf-8"?>
<!-- Generator: Adobe Illustrator 23.0.1, SVG Export Plug-In . SVG Version: 6.00 Build 0)  -->
<svg version="1.1" id="Слой_1" xmlns="http://www.w3.org/2000/svg" xmlns:xlink="http://www.w3.org/1999/xlink" x="0px" y="0px"
	 viewBox="0 0 170 58" style="enable-background:new 0 0 170 58;" xml:space="preserve">
<style type="text/css">
	.st0{fill-rule:evenodd;clip-rule:evenodd;fill:#E95322;}
	.st1{fill-rule:evenodd;clip-rule:evenodd;fill:#063A53;}
	.st2{fill:#063A53;}
</style>
<circle class="st0" cx="28.5" cy="14.9" r="3.4"/>
<path class="st1" d="M25.6,25.1c-0.1,1.4-0.3,2.8-0.4,4.2c0,0.3-0.1,0.8-0.1,1.3c0,0.5-0.1,1-0.1,1.5c0,0.5-0.1,1.1-0.1,1.6
	c0,0.5-0.1,1-0.1,1.4c0,0.4-0.1,0.8-0.1,1c0,0.3,0,0.4,0,0.4c0,0.1,0.1,0.2,0.2,0.2c0.1,0,0.1,0,0.1,0c1-0.3,2-0.7,2.9-1
	c0.9-0.3,1.8-0.6,2.7-0.9c0.2,0,0.3-0.1,0.3-0.3c0-0.1,0.1-0.4,0.1-0.7l1.3-14.2c0-0.1-0.1-0.1-0.2-0.1c-0.1,0-0.1,0-0.1,0
	c-0.9,0.3-1.9,0.6-2.8,0.7c-1,0.2-1.9,0.4-2.8,0.6c-0.2,0-0.3,0.1-0.4,0.3c0,0.1-0.1,0.4-0.1,0.7C25.8,23.3,25.8,23.7,25.6,25.1z"/>
<path class="st1" d="M145.8,25.9c0,1.5,0.2,2.8,0.7,4.2c0.5,1.3,1.1,2.5,2,3.5c0.9,1,1.9,1.8,3.1,2.4c1.2,0.6,2.6,0.9,4.2,0.9
	c1.2,0,2.4-0.1,3.6-0.4c1.2-0.3,2.2-0.7,3.2-1.2c1-0.5,1.9-1.2,2.7-2c0.8-0.8,1.5-1.7,2.1-2.6c0.6-1,1-2.1,1.4-3.2
	c0.3-1.2,0.5-2.4,0.5-3.7c0-2.1-0.3-3.8-0.9-5.3c-0.6-1.4-1.5-2.6-2.6-3.6c-1.1-0.9-2.5-1.7-4.1-2.2c-1.6-0.5-3.4-0.9-5.5-1.1
	c-0.1,0-0.2,0.1-0.3,0.3c-0.1,0.2-0.1,0.4-0.2,0.7c-0.1,0.2-0.1,0.5-0.2,0.7c-0.1,0.2-0.2,0.3-0.3,0.3c-1.4,0.3-2.6,0.9-3.8,1.6
	c-1.2,0.7-2.1,1.6-3,2.7c-0.8,1.1-1.5,2.3-1.9,3.7C146,22.8,145.8,24.3,145.8,25.9L145.8,25.9z M152.9,27.5
	c-0.2-0.8-0.2-1.5-0.2-2.3c0-0.4,0.1-0.9,0.1-1.5c0.1-0.5,0.2-1.1,0.4-1.6c0.2-0.5,0.4-1,0.7-1.5c0.3-0.5,0.6-0.9,1-1.3
	c0.4-0.4,0.8-0.7,1.3-0.9c0.5-0.2,1.1-0.3,1.7-0.3c0.8,0,1.5,0.2,2.1,0.5c0.6,0.3,1.1,0.8,1.5,1.3c0.4,0.5,0.7,1.1,0.9,1.8
	c0.2,0.7,0.3,1.4,0.3,2.2c0,0.5,0,1.1-0.1,1.7c-0.1,0.6-0.2,1.2-0.3,1.7c-0.1,0.6-0.3,1.1-0.6,1.6c-0.3,0.5-0.6,1-0.9,1.3
	c-0.4,0.4-0.8,0.7-1.4,1c-0.5,0.2-1.1,0.4-1.8,0.4c-0.9,0-1.7-0.2-2.3-0.6c-0.6-0.4-1.1-0.9-1.5-1.5C153.3,29,153.1,28.3,152.9,27.5
	z"/>
<path class="st1" d="M49,13.4c-1,0.3-2,0.7-2.9,1.2c-0.9,0.5-1.7,1.2-2.4,1.9c-0.7,0.7-1.3,1.6-1.9,2.5c-0.5,0.9-0.9,1.9-1.2,3
	c-0.3,1.1-0.4,2.2-0.4,3.3c0,1.7,0.3,3.2,0.8,4.6c0.5,1.4,1.3,2.6,2.2,3.6c0.9,1,2.1,1.8,3.3,2.3c1.3,0.6,2.7,0.8,4.1,0.8
	c0.5,0,1.1,0,1.7-0.1c0.6,0,1.2-0.1,1.7-0.2c0.6-0.1,1.1-0.3,1.7-0.5c0.6-0.2,1.1-0.4,1.5-0.7c0,0,0-0.1,0-0.2c0-0.2,0-0.4,0-0.6
	c0-0.3,0-0.6,0-0.9c0-0.3,0-0.7,0-1v-1.9c0-0.2,0-0.3,0-0.4c0-0.1-0.1-0.1-0.1-0.1c-0.1,0-0.1,0-0.2,0c-0.4,0.2-0.9,0.4-1.2,0.6
	c-0.4,0.2-0.8,0.3-1.2,0.4c-0.4,0.1-0.8,0.2-1.3,0.2c-0.5,0-1,0.1-1.6,0.1c-0.8,0-1.4-0.2-2-0.5c-0.6-0.3-1-0.8-1.4-1.4
	c-0.4-0.6-0.7-1.3-0.9-2c-0.2-0.8-0.3-1.6-0.3-2.4c0-1,0.1-1.9,0.4-2.7c0.3-0.8,0.7-1.5,1.1-2.1c0.5-0.6,1.1-1.1,1.8-1.4
	c0.7-0.3,1.5-0.5,2.3-0.5c0.6,0,1.2,0.1,1.8,0.3c0.6,0.2,1,0.4,1.5,0.7c0.4,0.2,0.8,0.5,1.2,0.7c0.3,0.2,0.6,0.4,0.8,0.4
	c0.1,0,0.3,0,0.3,0c0.2,0,0.3,0,0.3-0.1c0-0.1,0.1-0.1,0.1-0.2c0-0.4,0-0.8,0-1.4c0-0.5-0.1-1-0.1-1.6c0-0.5-0.1-1-0.1-1.4
	c0-0.4,0-0.7,0-0.9c0-0.1,0-0.1,0-0.1c-0.2-0.2-0.5-0.4-0.9-0.6c-0.3-0.2-0.8-0.4-1.3-0.6c-0.5-0.2-1.1-0.3-1.8-0.5
	C54,13,53.2,13,52.3,13C51.1,13,50,13.1,49,13.4L49,13.4z"/>
<path class="st1" d="M71.3,28h-3.8c0,0,0-0.1,0-0.1v-0.1c0.1-0.2,0.2-0.5,0.3-0.9c0.1-0.4,0.3-0.9,0.5-1.5c0.2-0.6,0.4-1.3,0.7-2
	c0.2-0.8,0.5-1.6,0.7-2.5c0.1,0.8,0.2,1.5,0.4,2.2c0.1,0.7,0.3,1.3,0.4,1.8c0.1,0.6,0.3,1.1,0.4,1.6C71.1,26.9,71.2,27.5,71.3,28
	L71.3,28z M64.3,22.4c-0.2,0.6-0.5,1.2-0.7,1.8c-0.2,0.6-0.5,1.1-0.7,1.7c-0.2,0.6-0.5,1.2-0.7,1.8c0,0-0.1,0-0.2,0
	c-0.2,0-0.4,0-0.6,0c-0.2,0-0.5,0-0.8,0c-0.3,0-0.6,0-0.8,0c-0.2,0-0.4,0-0.6,0c-0.2,0-0.2,0-0.2,0.1c0,0.3,0,0.7,0.1,1
	c0.1,0.3,0.2,0.7,0.4,1c0.2,0.3,0.3,0.7,0.5,1c0.2,0.3,0.4,0.6,0.6,0.9l-0.4,1c-0.1,0.4-0.3,0.8-0.4,1.1c-0.1,0.3-0.3,0.6-0.4,0.9
	c0.5,0.3,1.1,0.7,1.8,1c0.7,0.4,1.5,0.7,2.6,1.1c0,0,0,0,0.1,0c0.1,0,0.2,0,0.2-0.1c0.1-0.1,0.1-0.1,0.1-0.2c0.3-0.7,0.6-1.4,0.9-2
	c0.3-0.7,0.5-1.4,0.8-2.1l0.9,0c0.3,0,0.6,0,0.9,0c0.3,0,0.6,0,0.9,0c0.3,0,0.5,0,0.6,0c0.2,0,0.4,0,0.5,0c0.2,0,0.4,0,0.6,0
	c0.2,0,0.6,0,1,0c0.1,0,0.3,0,0.4,0c0.1,0,0.3,0,0.4,0c0.1,0,0.2,0,0.3,0.1c0.1,0,0.1,0.1,0.2,0.1c0.1,0.4,0.2,0.8,0.3,1.1
	c0.1,0.3,0.2,0.6,0.3,0.9c0.1,0.3,0.2,0.6,0.3,0.8c0.1,0.3,0.2,0.6,0.3,0.9c0,0.1,0.1,0.2,0.1,0.3c0.1,0.1,0.2,0.1,0.3,0.1h0.1
	c0.1,0,0.2,0,0.4-0.1c0.2,0,0.4-0.1,0.6-0.2c0.2-0.1,0.5-0.2,0.7-0.3c0.3-0.1,0.5-0.2,0.8-0.3l3.4-1.1c0.2-0.1,0.3-0.1,0.3-0.2
	c0-0.1,0-0.1-0.1-0.2c0-0.1-0.1-0.1-0.2-0.3c-0.1-0.1-0.2-0.3-0.3-0.5c-0.1-0.2-0.2-0.5-0.3-0.9c-0.3-0.9-0.6-1.8-0.9-2.6
	c-0.3-0.8-0.6-1.7-0.9-2.5c-0.3-0.8-0.6-1.7-0.9-2.6c-0.3-0.9-0.6-1.8-0.9-2.8c-0.5-1.8-1.1-3.5-1.7-5c-0.6-1.5-1.1-2.9-1.6-4.2
	c-0.1-0.2-0.2-0.4-0.3-0.5c-0.1-0.1-0.3-0.1-0.5-0.1h-0.3c-0.2,0-0.5,0-0.8,0.1c-0.3,0.1-0.7,0.2-1.1,0.2c-0.4,0.1-0.7,0.2-0.9,0.3
	c-0.3,0.1-0.4,0.1-0.5,0.1c-0.1,0-0.1,0-0.3,0.1c-0.1,0-0.2,0.1-0.3,0.2c-0.1,0.1-0.2,0.1-0.3,0.2c-0.1,0.1-0.2,0.2-0.2,0.3
	c-0.4,0.8-0.8,1.8-1.2,2.7c-0.4,1-0.8,2.1-1.3,3.4C64.8,21.2,64.5,21.8,64.3,22.4L64.3,22.4z"/>
<path class="st1" d="M89.7,26l4.7,9.8c0,0.1,0.1,0.2,0.1,0.3c0.1,0.1,0.1,0.3,0.2,0.4c0.1,0.1,0.2,0.2,0.3,0.3
	c0.1,0.1,0.3,0.1,0.5,0.1c0.1,0,0.2,0,0.3,0c0.1,0,0.2-0.1,0.4-0.1c0.5-0.3,0.9-0.5,1.3-0.7c0.4-0.2,0.7-0.4,1-0.5
	c0.3-0.1,0.6-0.3,0.9-0.4c0.3-0.1,0.5-0.2,0.8-0.4c0.1-0.1,0.3-0.1,0.5-0.3c0.2-0.1,0.5-0.2,0.7-0.3c0.2-0.1,0.4-0.2,0.6-0.3
	c0.2-0.1,0.3-0.2,0.3-0.3c0-0.1-0.1-0.2-0.2-0.2c-0.1,0-0.3,0-0.5,0c-0.2,0-0.4,0-0.6-0.1c-0.2,0-0.4-0.1-0.6-0.3
	c-0.5-0.8-1-1.6-1.4-2.3c-0.4-0.7-0.8-1.3-1.1-1.9c-0.3-0.6-0.6-1.1-0.8-1.5c-0.2-0.4-0.4-0.8-0.6-1c-0.2-0.3-0.3-0.5-0.4-0.7
	c-0.1-0.2-0.2-0.3-0.2-0.4c-0.1-0.1-0.1-0.1-0.1-0.2c0,0,0-0.1,0-0.1c0.1,0,0.3-0.1,0.6-0.3c0.3-0.1,0.6-0.3,1-0.6
	c0.4-0.2,0.8-0.5,1.2-0.9c0.4-0.3,0.8-0.7,1.1-1.2c0.3-0.4,0.6-0.9,0.9-1.5c0.2-0.6,0.3-1.2,0.3-1.8c0-1.2-0.2-2.2-0.7-3
	c-0.5-0.8-1.1-1.4-1.9-1.8c-0.8-0.5-1.7-0.8-2.7-1c-1-0.2-2.1-0.3-3.2-0.3c-1,0-1.9,0-2.7,0.1c-0.9,0.1-1.7,0.2-2.4,0.3
	c-0.8,0.1-1.5,0.2-2.1,0.4c-0.7,0.1-1.3,0.3-1.9,0.4l-2.5,4.4c0,0,0,0.1,0,0.1c0,0,0,0.1,0.1,0.1c0.1,0,0.2,0.1,0.2,0.1
	c0.3-0.1,0.7-0.1,1-0.2c0.3-0.1,0.6-0.1,0.9-0.2c0.3-0.1,0.5-0.1,0.7-0.1c0.2,0,0.3-0.1,0.4-0.1c0.1,0,0.1,0,0.1,0l-0.2,1.9
	c0,0.5-0.1,1-0.1,1.4c0,0.5-0.1,0.9-0.1,1.3l-0.2,2.7c-0.1,0.9-0.1,1.8-0.2,2.7c-0.1,0.9-0.1,1.7-0.2,2.7c0,0.7-0.1,1.3-0.1,1.8
	c0,0.5-0.1,1-0.1,1.4c0,0.4-0.1,0.8-0.1,1.2c0,0.4,0,0.8,0,1.3c0,0.2,0.1,0.3,0.2,0.4c0.1,0.1,0.2,0.1,0.4,0.1c0.2,0,0.4,0,0.5-0.1
	c0.2-0.1,0.3-0.1,0.5-0.2c0.2-0.1,0.6-0.2,1.1-0.4c0.5-0.2,1-0.3,1.4-0.5c0.5-0.2,0.9-0.3,1.3-0.5c0.4-0.1,0.6-0.2,0.6-0.2
	c0.1-0.1,0.2-0.1,0.2-0.2c0-0.1,0-0.2,0.1-0.3L89.7,26L89.7,26z M91.6,23.7c-0.6,0.3-1.1,0.4-1.7,0.4l0.6-6.7c0.2,0,0.4-0.1,0.6-0.1
	c0.2,0,0.5-0.1,0.9-0.1c1.8,0,2.7,0.8,2.7,2.3c0,0.6-0.1,1.1-0.5,1.6c-0.3,0.5-0.7,1-1.2,1.5C92.7,23.1,92.1,23.4,91.6,23.7
	L91.6,23.7z"/>
<path class="st1" d="M104.9,26.7l-0.3,3.7c0,0.7-0.1,1.3-0.1,1.8c0,0.5-0.1,1.1-0.1,1.6l-0.2,2.7c0,0.2,0,0.4,0.1,0.4
	c0.1,0.1,0.2,0.1,0.3,0.1c0.2,0,0.4,0,0.6-0.1c0.2,0,0.4-0.1,0.6-0.2c0.2-0.1,0.4-0.2,0.7-0.3c0.2-0.1,0.5-0.2,0.8-0.3l1-0.3
	c0.5-0.2,0.9-0.3,1.3-0.4c0.3-0.1,0.5-0.2,0.5-0.3l0.3-0.5l0.5-5.7c0.2,0,0.4,0,0.6,0c0.2,0,0.4,0,0.6,0c1.3,0,2.5-0.2,3.7-0.6
	c1.2-0.4,2.4-0.9,3.4-1.7c0.5-0.4,1-0.8,1.4-1.3c0.4-0.4,0.8-1,1.1-1.5c0.3-0.6,0.5-1.2,0.7-1.9c0.2-0.7,0.2-1.5,0.3-2.4
	c0-1.3-0.2-2.5-0.7-3.4c-0.5-0.9-1.1-1.6-1.9-2.1c-0.8-0.5-1.7-0.9-2.8-1.1c-1.1-0.2-2.2-0.3-3.4-0.3c-0.5,0-1,0-1.5,0.1
	c-0.5,0-1.1,0.1-1.7,0.1c-0.6,0.1-1.1,0.1-1.7,0.2c-0.5,0.1-1,0.1-1.5,0.2c-0.5,0.1-0.9,0.2-1.2,0.2c-0.4,0.1-0.6,0.1-0.8,0.2
	c-0.2,0.1-0.5,0.1-0.6,0.2c-0.2,0-0.3,0.1-0.4,0.2c-0.1,0.1-0.2,0.1-0.3,0.2c-0.1,0.1-0.1,0.2-0.2,0.4c-0.1,0.3-0.2,0.7-0.3,1.1
	c-0.1,0.4-0.2,0.9-0.4,1.3c-0.1,0.5-0.3,1-0.4,1.5c0,0.2,0.1,0.3,0.3,0.3c0.2,0,0.4,0,0.8-0.1c0.3-0.1,0.8-0.1,1.4-0.3
	c0,0.4-0.1,1-0.1,1.6c0,0.6-0.1,1.2-0.1,1.9c-0.1,0.7-0.1,1.4-0.2,2.2C105,25.2,104.9,25.9,104.9,26.7L104.9,26.7z M111.4,24.7
	c0-0.1-0.1-0.2-0.1-0.3c0-0.1,0-0.3,0.1-0.6c0-0.3,0.1-0.7,0.1-1c0-0.4,0.1-0.8,0.1-1.3c0-0.4,0.1-0.9,0.1-1.3
	c0-0.4,0.1-0.7,0.1-1.1c0-0.3,0-0.5,0.1-0.7l0-0.3c0-0.1,0.1-0.2,0.2-0.2c0.1-0.1,0.2-0.1,0.4-0.1c0.1,0,0.3-0.1,0.5-0.1
	c0.2,0,0.3,0,0.5,0c0.8,0,1.5,0.2,2,0.5c0.5,0.3,0.8,0.9,0.8,1.6c0,0.4,0,0.8-0.1,1.1c0,0.3-0.1,0.6-0.2,0.8c-0.2,0.5-0.4,1-0.8,1.4
	c-0.3,0.4-0.7,0.7-1.1,1c-0.4,0.3-0.8,0.5-1.2,0.6c-0.4,0.1-0.8,0.2-1,0.2C111.6,24.8,111.4,24.8,111.4,24.7L111.4,24.7z"/>
<path class="st1" d="M22.5,27.5c0.5-1.4,0.8-3,0.8-4.8c0-0.9-0.1-1.8-0.3-2.5c-0.2-0.7-0.5-1.4-0.8-2.1c-0.4-0.6-0.8-1.2-1.3-1.7
	c-0.5-0.5-1.1-1-1.8-1.5c-0.9-0.7-2-1.2-3.4-1.5c-1.3-0.4-2.8-0.5-4.6-0.5c-1,0-1.8,0-2.5,0.1C8,13,7.4,13.1,7,13.2
	c-0.4,0.1-0.8,0.2-1.1,0.4c-0.3,0.2-0.6,0.4-1,0.7l-4,3.7c-0.1,0.1-0.1,0.2-0.1,0.3c0,0.1,0,0.2,0.1,0.3C1,18.8,1,18.8,1.2,18.8
	c0.2,0,0.4,0,0.7-0.1c0.3,0,0.5-0.1,0.8-0.1c0.3-0.1,0.6-0.1,0.9-0.2c0.3-0.1,0.6-0.1,0.9-0.2l-0.2,3.3c0,0.4-0.1,0.8-0.1,1.2
	c0,0.4-0.1,0.7-0.1,1.1c0,0.3,0,0.6-0.1,0.9c0,0.3,0,0.4,0,0.6c0,0.3-0.1,0.7-0.1,1.2c0,0.5-0.1,1-0.1,1.5c0,0.5-0.1,1-0.1,1.6
	c0,0.5-0.1,1-0.1,1.4c0,0.4-0.1,0.8-0.1,1.1c0,0.3,0,0.4-0.1,0.5L1.4,36c0,0.1-0.1,0.2-0.1,0.3c0,0.1,0,0.2,0.1,0.3
	c0.1,0.1,0.1,0.1,0.3,0.2h2.8c1.4,0,2.9-0.1,4.4-0.3c1.5-0.2,2.9-0.5,4.3-1c1.4-0.4,2.7-1,3.9-1.8c1.2-0.7,2.3-1.6,3.2-2.6
	C21.3,30.1,22,28.9,22.5,27.5L22.5,27.5z M16.4,24.1c0,1.1-0.1,2.1-0.4,3.1c-0.2,1-0.6,1.8-1.2,2.5c-0.5,0.7-1.3,1.3-2.1,1.7
	c-0.9,0.4-1.9,0.6-3.2,0.6l0-0.5c0-0.3,0.1-0.7,0.1-1.2c0-0.5,0.1-1.1,0.1-1.7c0-0.6,0.1-1.3,0.2-2.1c0.1-0.7,0.1-1.5,0.2-2.3
	c0.1-0.8,0.1-1.5,0.2-2.3c0.1-0.7,0.1-1.5,0.2-2.1l0.2-1.9c0.1-0.1,0.2-0.1,0.4-0.2c0.1-0.1,0.3-0.1,0.4-0.1c0.8,0,1.4,0.2,2.1,0.5
	c0.6,0.3,1.1,0.8,1.5,1.5c0.4,0.7,0.7,1.4,1,2.1C16.3,22.5,16.4,23.3,16.4,24.1L16.4,24.1z"/>
<g>
	<path class="st0" d="M137.3,34.8c-1,0-1.9,0.7-2.1,1.7c-2.6-1.3-4.4-4-4.4-7.1c0-4,3-7.4,6.9-7.9c0,0,0,0,0,0v-1.3
		c-0.1-0.7-0.3-1.4-0.5-2c-0.3-0.9-0.6-1.8-1-2.5c-0.4-0.7-0.7-1.4-1.1-1.9c-0.4-0.5-0.8-1-1.1-1.3c-0.1-0.2-0.3-0.3-0.4-0.4
		c-2.5,0.9-4.6,2.4-6.1,4.5c0,0,0.1,0,0.1,0.1c0.7,0.6,1.2,1.2,1.8,1.9c0.5,0.7,0.9,1.5,1.2,2.3c0.3,0.8,0.4,1.7,0.4,2.7
		c-0.8-0.9-1.7-1.6-2.4-2.2c-0.8-0.6-1.6-1.1-2.3-1.4c-0.1-0.1-0.3-0.1-0.4-0.2c-0.6,1.4-0.9,3-0.9,4.6c0,0.8,0.1,1.6,0.2,2.4
		c0.8,0.2,1.5,0.5,2.3,1c0.8,0.5,1.4,1,2,1.8c-1.2-0.1-2.3-0.1-3.3-0.1c-0.1,0-0.1,0-0.2,0c0.7,1.6,1.6,3,2.8,4.1
		c0.6-0.1,1.2-0.2,1.9-0.2c-0.3,0.3-0.7,0.7-0.9,1c1.6,1.3,3.5,2.2,5.6,2.6c0.2,1,1.1,1.7,2.1,1.7h3.1l-1.6-1.6
		c-0.2-0.2-0.4-0.3-0.6-0.4c0.2-0.1,0.4-0.2,0.6-0.4l1.6-1.6H137.3z M135.1,36.6c0,0.1,0,0.1,0,0.2
		C135.1,36.7,135.1,36.7,135.1,36.6L135.1,36.6L135.1,36.6z M135.1,36.8c0,0.1,0,0.1,0,0.2h0C135.1,36.9,135.1,36.9,135.1,36.8
		L135.1,36.8z M139.5,16.6c0,0.9-0.2,1.7-0.4,2.6c-0.3,0.8-0.7,1.6-1.3,2.4c4.9-0.1,8.8-4.1,8.8-9v-1.1h-8.2c0,0,0,0.1,0.1,0.1
		c0.3,0.8,0.6,1.6,0.8,2.5C139.4,14.9,139.5,15.7,139.5,16.6L139.5,16.6z"/>
	<circle class="st0" cx="135.6" cy="5.4" r="3.4"/>
</g>
<path class="st2" d="M42.7,48.1v2.3h3v1.2h-3v3.2h-1.5V47h5v1.2H42.7z M48.9,54.9h-1.5V47h1.5V54.9z M54.8,48.4
	c0,0.1-0.1,0.1-0.1,0.2c0,0-0.1,0.1-0.2,0.1c-0.1,0-0.2,0-0.2-0.1c-0.1-0.1-0.2-0.1-0.3-0.2s-0.3-0.1-0.4-0.2
	c-0.2-0.1-0.4-0.1-0.6-0.1c-0.2,0-0.4,0-0.5,0.1c-0.2,0-0.3,0.1-0.4,0.2c-0.1,0.1-0.2,0.2-0.2,0.3c-0.1,0.1-0.1,0.3-0.1,0.4
	c0,0.2,0.1,0.3,0.2,0.5c0.1,0.1,0.2,0.2,0.4,0.3c0.2,0.1,0.4,0.2,0.6,0.2c0.2,0.1,0.4,0.1,0.7,0.2c0.2,0.1,0.5,0.2,0.7,0.3
	c0.2,0.1,0.4,0.2,0.6,0.4c0.2,0.2,0.3,0.4,0.4,0.6c0.1,0.2,0.2,0.5,0.2,0.8c0,0.4-0.1,0.7-0.2,1c-0.1,0.3-0.3,0.6-0.5,0.8
	c-0.2,0.2-0.5,0.4-0.9,0.5c-0.3,0.1-0.7,0.2-1.2,0.2c-0.3,0-0.5,0-0.7-0.1c-0.2,0-0.5-0.1-0.7-0.2c-0.2-0.1-0.4-0.2-0.6-0.3
	c-0.2-0.1-0.4-0.3-0.5-0.4l0.4-0.7c0-0.1,0.1-0.1,0.1-0.1c0.1,0,0.1-0.1,0.2-0.1c0.1,0,0.2,0,0.3,0.1c0.1,0.1,0.2,0.2,0.4,0.2
	c0.1,0.1,0.3,0.2,0.5,0.2c0.2,0.1,0.4,0.1,0.7,0.1c0.4,0,0.7-0.1,1-0.3c0.2-0.2,0.3-0.5,0.3-0.9c0-0.2-0.1-0.4-0.2-0.5
	c-0.1-0.1-0.2-0.2-0.4-0.3c-0.2-0.1-0.4-0.2-0.6-0.2c-0.2-0.1-0.4-0.1-0.7-0.2c-0.2-0.1-0.4-0.2-0.7-0.3c-0.2-0.1-0.4-0.2-0.6-0.4
	c-0.2-0.2-0.3-0.4-0.4-0.6c-0.1-0.2-0.2-0.5-0.2-0.9c0-0.3,0.1-0.6,0.2-0.8c0.1-0.3,0.3-0.5,0.5-0.7c0.2-0.2,0.5-0.4,0.8-0.5
	c0.3-0.1,0.7-0.2,1.1-0.2c0.5,0,0.9,0.1,1.3,0.2c0.4,0.1,0.7,0.3,1,0.6L54.8,48.4L54.8,48.4z M63.3,47v7.9h-1.5v-3.4h-3.7v3.4h-1.5
	V47h1.5v3.4h3.7V47L63.3,47L63.3,47z M69.4,51.2c-0.3,0.2-0.5,0.4-0.6,0.6c-0.1,0.2-0.2,0.5-0.2,0.8c0,0.2,0,0.4,0.1,0.5
	c0.1,0.2,0.2,0.3,0.3,0.4c0.1,0.1,0.3,0.2,0.4,0.3c0.2,0.1,0.3,0.1,0.5,0.1c0.3,0,0.6-0.1,0.9-0.2c0.3-0.1,0.5-0.2,0.7-0.4
	L69.4,51.2L69.4,51.2z M74.7,54.9h-1.3c-0.1,0-0.2,0-0.3,0c-0.1,0-0.2-0.1-0.3-0.2L72.2,54c-0.3,0.3-0.7,0.5-1.2,0.7
	c-0.4,0.2-0.9,0.2-1.4,0.2c-0.3,0-0.6-0.1-0.9-0.2c-0.3-0.1-0.6-0.3-0.8-0.4c-0.2-0.2-0.4-0.4-0.6-0.7c-0.1-0.3-0.2-0.6-0.2-0.9
	c0-0.2,0-0.5,0.1-0.7c0.1-0.2,0.2-0.4,0.3-0.6c0.1-0.2,0.3-0.4,0.5-0.5c0.2-0.2,0.4-0.3,0.6-0.4c-0.2-0.3-0.3-0.5-0.4-0.8
	c-0.1-0.3-0.1-0.5-0.1-0.8c0-0.3,0.1-0.5,0.2-0.8c0.1-0.2,0.2-0.5,0.4-0.6c0.2-0.2,0.4-0.3,0.7-0.4c0.3-0.1,0.6-0.2,0.9-0.2
	c0.3,0,0.6,0,0.9,0.1c0.3,0.1,0.5,0.2,0.6,0.4s0.3,0.4,0.4,0.6c0.1,0.2,0.2,0.4,0.2,0.7l-0.9,0.2c-0.2,0-0.3,0-0.3-0.2
	c0-0.1-0.1-0.2-0.1-0.3c-0.1-0.1-0.1-0.2-0.2-0.2C71,48,70.9,48,70.8,48c-0.1,0-0.2-0.1-0.3-0.1c-0.2,0-0.3,0-0.4,0.1
	c-0.1,0.1-0.2,0.1-0.3,0.2c-0.1,0.1-0.1,0.2-0.2,0.3c0,0.1-0.1,0.2-0.1,0.4c0,0.1,0,0.2,0,0.3c0,0.1,0.1,0.2,0.1,0.3
	c0.1,0.1,0.1,0.2,0.2,0.3c0.1,0.1,0.2,0.2,0.3,0.3l2.1,2.2c0.1-0.2,0.2-0.5,0.3-0.7c0.1-0.3,0.1-0.5,0.1-0.8c0-0.1,0-0.2,0.1-0.2
	c0-0.1,0.1-0.1,0.2-0.1h0.8c0,0.5-0.1,0.9-0.2,1.4c-0.1,0.4-0.3,0.8-0.6,1.2L74.7,54.9L74.7,54.9z M82.4,48.4c0,0.1-0.1,0.1-0.1,0.2
	c0,0-0.1,0.1-0.2,0.1c-0.1,0-0.2,0-0.2-0.1c-0.1-0.1-0.2-0.1-0.3-0.2c-0.1-0.1-0.3-0.1-0.4-0.2c-0.2-0.1-0.4-0.1-0.6-0.1
	c-0.2,0-0.4,0-0.5,0.1c-0.2,0-0.3,0.1-0.4,0.2c-0.1,0.1-0.2,0.2-0.2,0.3c-0.1,0.1-0.1,0.3-0.1,0.4c0,0.2,0.1,0.3,0.2,0.5
	c0.1,0.1,0.2,0.2,0.4,0.3s0.4,0.2,0.6,0.2c0.2,0.1,0.4,0.1,0.7,0.2c0.2,0.1,0.5,0.2,0.7,0.3c0.2,0.1,0.4,0.2,0.6,0.4
	c0.2,0.2,0.3,0.4,0.4,0.6c0.1,0.2,0.2,0.5,0.2,0.8c0,0.4-0.1,0.7-0.2,1c-0.1,0.3-0.3,0.6-0.5,0.8c-0.2,0.2-0.5,0.4-0.9,0.5
	c-0.3,0.1-0.7,0.2-1.2,0.2c-0.3,0-0.5,0-0.7-0.1c-0.2,0-0.5-0.1-0.7-0.2c-0.2-0.1-0.4-0.2-0.6-0.3c-0.2-0.1-0.4-0.3-0.5-0.4l0.4-0.7
	c0-0.1,0.1-0.1,0.1-0.1c0.1,0,0.1-0.1,0.2-0.1c0.1,0,0.2,0,0.3,0.1c0.1,0.1,0.2,0.2,0.4,0.2c0.1,0.1,0.3,0.2,0.5,0.2
	c0.2,0.1,0.4,0.1,0.7,0.1c0.4,0,0.7-0.1,1-0.3c0.2-0.2,0.3-0.5,0.3-0.9c0-0.2-0.1-0.4-0.2-0.5c-0.1-0.1-0.2-0.2-0.4-0.3
	c-0.2-0.1-0.4-0.2-0.6-0.2c-0.2-0.1-0.4-0.1-0.7-0.2c-0.2-0.1-0.4-0.2-0.7-0.3c-0.2-0.1-0.4-0.2-0.6-0.4c-0.2-0.2-0.3-0.4-0.4-0.6
	c-0.1-0.2-0.2-0.5-0.2-0.9c0-0.3,0.1-0.6,0.2-0.8c0.1-0.3,0.3-0.5,0.5-0.7c0.2-0.2,0.5-0.4,0.8-0.5c0.3-0.1,0.7-0.2,1.1-0.2
	c0.5,0,0.9,0.1,1.3,0.2c0.4,0.1,0.7,0.3,1,0.6L82.4,48.4L82.4,48.4z M85.7,48.1v2.2h2.8v1.1h-2.8v2.2h3.5v1.2h-5V47h5v1.2L85.7,48.1
	L85.7,48.1z M94.7,51.9l-1-2.6c0-0.1-0.1-0.3-0.1-0.4c-0.1-0.2-0.1-0.3-0.2-0.5c0,0.2-0.1,0.4-0.1,0.5c-0.1,0.2-0.1,0.3-0.1,0.4
	l-1,2.6L94.7,51.9L94.7,51.9z M97.2,54.9h-1.1c-0.1,0-0.2,0-0.3-0.1c-0.1-0.1-0.1-0.1-0.2-0.2L95,52.9h-3.3l-0.6,1.6
	c0,0.1-0.1,0.2-0.2,0.2c-0.1,0.1-0.2,0.1-0.3,0.1h-1.1l3.1-7.9h1.5L97.2,54.9L97.2,54.9z M99.5,48.1v2.3h3v1.2h-3v3.2h-1.5V47h5v1.2
	L99.5,48.1L99.5,48.1z M111.7,50.9c0,0.6-0.1,1.1-0.3,1.6c-0.2,0.5-0.5,0.9-0.8,1.3c-0.3,0.4-0.8,0.6-1.3,0.8
	c-0.5,0.2-1,0.3-1.6,0.3c-0.6,0-1.1-0.1-1.6-0.3c-0.5-0.2-0.9-0.5-1.3-0.8c-0.4-0.4-0.6-0.8-0.8-1.3c-0.2-0.5-0.3-1-0.3-1.6
	c0-0.6,0.1-1.1,0.3-1.6c0.2-0.5,0.5-0.9,0.8-1.3c0.4-0.4,0.8-0.6,1.3-0.8c0.5-0.2,1-0.3,1.6-0.3c0.4,0,0.8,0,1.1,0.1
	c0.4,0.1,0.7,0.2,1,0.4c0.3,0.2,0.6,0.4,0.8,0.6c0.2,0.2,0.4,0.5,0.6,0.8c0.2,0.3,0.3,0.6,0.4,1C111.7,50.2,111.7,50.5,111.7,50.9
	L111.7,50.9z M110.2,50.9c0-0.4-0.1-0.8-0.2-1.2c-0.1-0.3-0.3-0.6-0.5-0.9c-0.2-0.2-0.5-0.4-0.8-0.6c-0.3-0.1-0.7-0.2-1-0.2
	c-0.4,0-0.7,0.1-1,0.2c-0.3,0.1-0.6,0.3-0.8,0.6c-0.2,0.2-0.4,0.5-0.5,0.9c-0.1,0.3-0.2,0.7-0.2,1.2c0,0.4,0.1,0.8,0.2,1.2
	c0.1,0.3,0.3,0.6,0.5,0.9c0.2,0.2,0.5,0.4,0.8,0.5c0.3,0.1,0.7,0.2,1,0.2c0.4,0,0.7-0.1,1-0.2c0.3-0.1,0.6-0.3,0.8-0.5
	c0.2-0.2,0.4-0.5,0.5-0.9C110.1,51.7,110.2,51.3,110.2,50.9z M120.5,50.9c0,0.6-0.1,1.1-0.3,1.6c-0.2,0.5-0.5,0.9-0.8,1.3
	c-0.3,0.4-0.8,0.6-1.3,0.8c-0.5,0.2-1,0.3-1.6,0.3c-0.6,0-1.1-0.1-1.6-0.3c-0.5-0.2-0.9-0.5-1.3-0.8c-0.4-0.4-0.6-0.8-0.8-1.3
	c-0.2-0.5-0.3-1-0.3-1.6c0-0.6,0.1-1.1,0.3-1.6c0.2-0.5,0.5-0.9,0.8-1.3c0.4-0.4,0.8-0.6,1.3-0.8c0.5-0.2,1-0.3,1.6-0.3
	c0.4,0,0.8,0,1.1,0.1c0.4,0.1,0.7,0.2,1,0.4c0.3,0.2,0.6,0.4,0.8,0.6c0.2,0.2,0.4,0.5,0.6,0.8c0.2,0.3,0.3,0.6,0.4,1
	C120.5,50.2,120.5,50.5,120.5,50.9L120.5,50.9z M119,50.9c0-0.4-0.1-0.8-0.2-1.2c-0.1-0.3-0.3-0.6-0.5-0.9c-0.2-0.2-0.5-0.4-0.8-0.6
	c-0.3-0.1-0.7-0.2-1-0.2c-0.4,0-0.7,0.1-1,0.2c-0.3,0.1-0.6,0.3-0.8,0.6c-0.2,0.2-0.4,0.5-0.5,0.9c-0.1,0.3-0.2,0.7-0.2,1.2
	c0,0.4,0.1,0.8,0.2,1.2c0.1,0.3,0.3,0.6,0.5,0.9c0.2,0.2,0.5,0.4,0.8,0.5c0.3,0.1,0.7,0.2,1,0.2c0.4,0,0.7-0.1,1-0.2
	c0.3-0.1,0.6-0.3,0.8-0.5c0.2-0.2,0.4-0.5,0.5-0.9C119,51.7,119,51.3,119,50.9z M128.8,50.9c0,0.6-0.1,1.1-0.3,1.6
	c-0.2,0.5-0.5,0.9-0.8,1.2c-0.3,0.3-0.8,0.6-1.3,0.8c-0.5,0.2-1,0.3-1.6,0.3h-3V47h3c0.6,0,1.1,0.1,1.6,0.3c0.5,0.2,0.9,0.5,1.3,0.8
	c0.3,0.3,0.6,0.8,0.8,1.2C128.7,49.8,128.8,50.3,128.8,50.9L128.8,50.9z M127.3,50.9c0-0.4-0.1-0.8-0.2-1.2
	c-0.1-0.3-0.3-0.6-0.5-0.9c-0.2-0.2-0.5-0.4-0.8-0.5c-0.3-0.1-0.7-0.2-1-0.2h-1.5v5.6h1.5c0.4,0,0.7-0.1,1-0.2
	c0.3-0.1,0.6-0.3,0.8-0.5c0.2-0.2,0.4-0.5,0.5-0.9C127.3,51.7,127.3,51.3,127.3,50.9L127.3,50.9z"/>
</svg>
